# xmcd
# 
# Track frame offsets:
#     150
#     13254
#     28635
#     42254
#     54481
#     66810
#     79292
#     93926
#     110097
#     124318
#     136877
#     150157
#     166058
#     178838
#     193713
#     207037
#     220469
#     234435
#     250176
#     265154
#     280674
#     295994
#     311158
#     324997
#     338804
# 
# Disc length: 4753
# 
# Revision: 10
# Processed by: cddbd v1.5.2PL0 Copyright (c) Steve Scherf et al.
# Submitted via: fre:ac v1.0.31
# 
DISCID=6a128f19
DTITLE=Blues - When The Sun Goes Down - Volume 1 - Walk Right In
DYEAR=2002
DGENRE=Blues
TTITLE0=Robert Petway - Catfish Blues (mono)
TTITLE1=Big Joe Williams - Baby, Please Don't Go (mono)
TTITLE2=Leadbelly - Ham An' Eggs (mono)
TTITLE3=Big Bill Broonzy - Mississippi River Blues (mono)
TTITLE4=Trixie Butler - Just A Good Woman Through With The Blues (mono)
TTITLE5=Milton Brown and His Musical Brownies - Garbage Man Blues (mono)
TTITLE6=Bukka White - The Panama Limited (mono)
TTITLE7=Tommy Johnson - Cool Drink Of Water Blues (mono)
TTITLE8=Leadbelly - The Midnight Special (mono)
TTITLE9=Carter Family - Worried Man Blues (mono)
TTITLE10=Amede Ardoin and Denus McGee - Les Blues De Voyage (mono)
TTITLE11=Andrew and Jim Baxter - K. C. Railroad Blues (mono)
TTITLE12=Rev. J. M. Gates - Somebody's Been Stealin' (mono)
TTITLE13=Alberta Hunter - Beale Street Blues (mono)
TTITLE14=Noah Lewis - Devil In The Wood Pile (mono)
TTITLE15=Gus Cannon's Jug Stompers - Walk Right In (mono)
TTITLE16=Julius Daniels - Ninety-Nine Year Blues (mono)
TTITLE17=Bessie Tucker - Got Cut All To Pieces (mono)
TTITLE18=Gus Cannon's Jug Stompers - Feather Bed (mono)
TTITLE19=Julius Daniels - Can't Put A Bridle On That Mule This Morning (mono)
TTITLE20=Deford Bailey - Davidson County Blues (mono)
TTITLE21=Frank Crumit - Frankie And Johnny (mono)
TTITLE22=Taskiana Four - Dixie Bo-Bo (mono)
TTITLE23=Paul Robeson - Sometimes I Feel Like A Motherless Child (mono)
TTITLE24=The Hall Johnson Choir - St. Louis Blues (mono)
EXTD=
EXTT0=
EXTT1=
EXTT2=
EXTT3=
EXTT4=
EXTT5=
EXTT6=
EXTT7=
EXTT8=
EXTT9=
EXTT10=
EXTT11=
EXTT12=
EXTT13=
EXTT14=
EXTT15=
EXTT16=
EXTT17=
EXTT18=
EXTT19=
EXTT20=
EXTT21=
EXTT22=
EXTT23=
EXTT24=
PLAYORDER=
